<svg data-name="Layer 1" id="Layer_1" viewBox="0 0 512 512" xmlns="http://www.w3.org/2000/svg"><path d="M256,136.87c-58.54,0-88,26.09-102.33,48-19.49,29.67-23,69.81-9,102.27A68.43,68.43,0,0,0,155.1,304a190.5,190.5,0,0,1,42.17,90.89l3.58,21.39v51.84a5,5,0,0,0,5,5h100.3a5,5,0,0,0,5-5V416.31l3.58-21.39A190.54,190.54,0,0,1,356.9,304a68.43,68.43,0,0,0,10.39-16.92c14-32.46,10.53-72.6-9-102.27C344,163,314.53,136.87,256,136.87Zm0,326.28H210.85V420.89h90.3v42.26Zm-3.82-164a3.19,3.19,0,0,0,.33.31,3.31,3.31,0,0,0,.26.27l.06,0a4.14,4.14,0,0,0,.55.38l.27.17a5.68,5.68,0,0,0,.63.27c.09,0,.18.08.27.1a5,5,0,0,0,.69.15l.25,0a4.21,4.21,0,0,0,.71,0h.24a4.94,4.94,0,0,0,.67-.12l.29-.06.54-.21.37-.16a4.65,4.65,0,0,0,.41-.26,4.27,4.27,0,0,0,.44-.3l.07-.05.28-.28c.1-.1.21-.19.31-.3l26.47-31.26-19.77,143h-21l-19.77-143Zm105.93-16a58.29,58.29,0,0,1-8.87,14.45,200.58,200.58,0,0,0-44.37,95.68l-2.95,17.62h-25.3l21.93-158.73a5,5,0,0,0-8.77-3.91L256,288.14l-33.78-39.89a5,5,0,0,0-8.77,3.91l21.93,158.73h-25.3l-3-17.62a200.5,200.5,0,0,0-44.38-95.68,58.56,58.56,0,0,1-8.86-14.45C143.44,259,141.91,221,162,190.33c13-19.82,39.9-43.46,94-43.46s80.95,23.64,94,43.46C370.09,221,368.56,259,358.11,283.14Z" style="fill:#231f20"/><path d="M85.28,108.62a5,5,0,0,0-7.07,7.07l36.7,36.7a5,5,0,0,0,7.07,0,5,5,0,0,0,0-7.07Z" style="fill:#231f20"/><path d="M85.54,279.9H33.64a5,5,0,1,0,0,10h51.9a5,5,0,1,0,0-10Z" style="fill:#231f20"/><path d="M256,100.76a5,5,0,0,0,5-5V43.85a5,5,0,0,0-10,0V95.76A5,5,0,0,0,256,100.76Z" style="fill:#231f20"/><path d="M433.79,108.62a5,5,0,0,0-7.07,0L390,145.32a5,5,0,0,0,7.07,7.07l36.7-36.7A5,5,0,0,0,433.79,108.62Z" style="fill:#231f20"/><path d="M478.36,279.9h-51.9a5,5,0,1,0,0,10h51.9a5,5,0,0,0,0-10Z" style="fill:#231f20"/></svg>